<svg width="32" height="32" viewBox="0 0 100 100" fill="none" xmlns="http://www.w3.org/2000/svg">
  <defs>
    <linearGradient id="globeGradient" x1="0%" y1="0%" x2="100%" y2="100%">
      <stop offset="0%" stop-color="#00968e" />
      <stop offset="50%" stop-color="#007a73" />
      <stop offset="100%" stop-color="#005f5a" />
    </linearGradient>
  </defs>

  <circle cx="50" cy="50" r="45" fill="url(#globeGradient)" />
  <ellipse cx="35" cy="35" rx="20" ry="15" fill="white" opacity="0.2" />
  <ellipse cx="50" cy="50" rx="45" ry="20" stroke="white" stroke-width="1.5" fill="none" opacity="0.6" />
  <ellipse cx="50" cy="50" rx="45" ry="35" stroke="white" stroke-width="1.5" fill="none" opacity="0.6" />
  <ellipse cx="50" cy="50" rx="20" ry="45" stroke="white" stroke-width="1.5" fill="none" opacity="0.6" />
  <ellipse cx="50" cy="50" rx="35" ry="45" stroke="white" stroke-width="1.5" fill="none" opacity="0.6" />
  <circle cx="50" cy="10" r="4" fill="white" />
  <circle cx="50" cy="90" r="4" fill="white" />
  <circle cx="10" cy="50" r="4" fill="white" />
  <circle cx="90" cy="50" r="4" fill="white" />
  <circle cx="25" cy="25" r="3" fill="white" opacity="0.8" />
  <circle cx="75" cy="25" r="3" fill="white" opacity="0.8" />
  <circle cx="25" cy="75" r="3" fill="white" opacity="0.8" />
  <circle cx="75" cy="75" r="3" fill="white" opacity="0.8" />
  <circle cx="50" cy="30" r="3" fill="white" opacity="0.8" />
  <circle cx="50" cy="70" r="3" fill="white" opacity="0.8" />
  <circle cx="30" cy="50" r="3" fill="white" opacity="0.8" />
  <circle cx="70" cy="50" r="3" fill="white" opacity="0.8" />
</svg>
